<svg xmlns="http://www.w3.org/2000/svg" viewBox="0 0 174 84">
  <g fill="#fff" style="isolation:isolate">
    <path d="M1 43V2a1 1 0 0 1 1-1h10a1 1 0 0 1 1 1v32h13a1 1 0 0 1 1 1v8a1 1 0 0 1-1 1H2a1 1 0 0 1-1-1zM28 23C28 5 38 0 48 0s20 5 20 23-10 22-20 22-20-5-20-23zm27 0c0-10-3-12-7-12s-7 2-7 12 3 11 7 11 7-2 7-12zM71 23C71 4 81 0 91 0c6 0 9 1 11 2l1 3v7a1 1 0 0 1-1 2 4 4 0 0 1-2-1 15 15 0 0 0-7-2c-6 0-9 3-9 12s3 12 9 12a16 16 0 0 0 7-3 4 4 0 0 1 2 0 1 1 0 0 1 1 1v8l-1 2c-2 1-5 2-11 2-10 0-20-4-20-22zM118 43a1 1 0 0 1-2 1h-9a1 1 0 0 1-1-1 9 9 0 0 1 1-3l12-38 1-1h9a1 1 0 0 1 2 1l12 38a9 9 0 0 1 1 3 1 1 0 0 1-1 1h-9a2 2 0 0 1-2-1l-1-5h-12zm9-18l-2-8v-1 1l-2 8-2 4h7zM147 43V2a1 1 0 0 1 2-1h9a1 1 0 0 1 1 1l1 32h12a1 1 0 0 1 1 1v8a1 1 0 0 1-1 1h-23a1 1 0 0 1-2-1z"/>
  </g>
  <g fill="#fff" style="isolation:isolate">
    <path d="M0 83V56a1 1 0 0 1 1-1h12c5 0 8 3 8 8a7 7 0 0 1-4 6c4 1 5 3 5 7 0 5-3 8-9 8H1l-1-1zm10-17c2 0 3 0 3-2s-1-3-3-3H8v5h2zm1 12c2 1 3 0 3-3 0-2-1-3-3-3H8v7zM45 76l3 6a2 2 0 0 0 1 1 1 1 0 0 1 1 1 1 1 0 0 1-1 0h-7c-2 0-2-1-3-3l-3-6a1 1 0 0 0-2-1h-1v9a1 1 0 0 1 0 1h-7a1 1 0 0 1-1-1V56a1 1 0 0 1 1-1h13c5 0 9 4 9 10 0 4-3 7-6 8 2 0 2 1 3 3zm-12-8h3c2 0 4-1 4-3s-2-3-4-3h-3v6zM52 83V56a1 1 0 0 1 1-1h15a1 1 0 0 1 1 1v6a1 1 0 0 1-1 0h-8v4h6a1 1 0 0 1 1 1v5a1 1 0 0 1-1 1h-6v4h8a1 1 0 0 1 1 1v5a1 1 0 0 1-1 1H53a1 1 0 0 1-1-1zM90 60l2 9a18 18 0 0 1 1 3v-3l2-13a1 1 0 0 1 1-1l6 1a1 1 0 0 1 1 0 11 11 0 0 1 0 2l-5 25a1 1 0 0 1-1 1h-6a1 1 0 0 1-1-1l-2-8-1-5c0-1 0 0 0 0l-1 5-1 9a1 1 0 0 1-1 0h-7l-5-26a11 11 0 0 1-1-2 1 1 0 0 1 1 0h6a1 1 0 0 1 1 0l2 13 1 3c0 1 0 0 0 0a20 20 0 0 1 1-3l2-9a1 1 0 0 1 1 0h3a1 1 0 0 1 1 0zM106 83V56a1 1 0 0 1 1-1h16a1 1 0 0 1 1 1v6a1 1 0 0 1-1 0h-9v4h7a1 1 0 0 1 1 1v5a1 1 0 0 1-1 1h-7v4h9a1 1 0 0 1 1 1v5a1 1 0 0 1-1 1h-16a1 1 0 0 1-1-1zM147 76l3 6a2 2 0 0 0 1 1 1 1 0 0 1 1 1 1 1 0 0 1-1 0h-7c-2 0-2-1-3-3l-4-6a1 1 0 0 0-1-1h-1v9a1 1 0 0 1-1 1h-6a1 1 0 0 1-1-1V56a1 1 0 0 1 1-1h13c5 0 8 4 8 10 0 4-2 7-5 8l3 3zm-12-8h3c2 0 3-1 3-3s-1-3-3-3h-3v6zM158 83v-9l-8-16a4 4 0 0 1 0-2 1 1 0 0 1 0-1l7 1a1 1 0 0 1 1 0l2 6a29 29 0 0 1 2 4 20 20 0 0 1 2-4l2-6 1-1 6 1a1 1 0 0 1 1 0 4 4 0 0 1 0 2l-8 16v9a1 1 0 0 1-1 1h-6a1 1 0 0 1-1-1z"/>
  </g>
</svg>